# xmcd
#
# Track frame offsets:
#	183
#	13695
#	25413
#	35560
#	46300
#	57128
#	68158
#	78700
#	89323
#	102413
#	112025
#	122295
#	135908
#	146305
#
# Disc length: 2089 seconds
#
# Revision: 1647655267
# Processed by: cddbd v1.5.2PL0 Copyright (c) Steve Scherf et al.
# Submitted via: EZCDAudioConverter 8.0.3.1
#
DISCID=b508270e
DTITLE=Patsy Cline - 56 Greatest Country Songs
DYEAR=1990
DGENRE=Pop/Country
TTITLE0=She's Got You
TTITLE1=Sweet Dreams (Of You)
TTITLE2=Seven Lonely Days
TTITLE3=Honky Tonk Merry Go Round
TTITLE4=I Cried All The Way To The Alter
TTITLE5=Leavin' On Your Mind
TTITLE6=Gotta Lot Of Rhythm In My Soul
TTITLE7=Secrets
TTITLE8=If I Could See The World
TTITLE9=True Love
TTITLE10=Pick Me Up (On Your Way Down)
TTITLE11=A Church, A Courtroom, Then Goodbye
TTITLE12=Three Cigarettes In An Ashtray
TTITLE13=San  Antonio Rose
EXTD=
EXTT0=
EXTT1=
EXTT2=
EXTT3=
EXTT4=
EXTT5=
EXTT6=
EXTT7=
EXTT8=
EXTT9=
EXTT10=
EXTT11=
EXTT12=
EXTT13=
PLAYORDER=
